<svg version="1.1" id="Layer_1" xmlns="http://www.w3.org/2000/svg" xmlns:xlink="http://www.w3.org/1999/xlink" x="0px" y="0px" viewBox="0 0 400 400" style="enable-background:new 0 0 400 400;" xml:space="preserve" width="400"  height="400" >
              <style type="text/css">
              	.st0{fill:#313E46;}
              </style>
              <g>
              	<path class="st0" d="M362.1,179.2c-16.3,3.2-30.5,6-45.4,8.9c-2.5-8-5.1-16.3-7.7-24.7c13.1-5.7,25.9-11.3,38.9-16.7
              		c1-0.4,3.6,0.4,3.8,1.2C355.2,158,358.5,168.2,362.1,179.2z" fill="#313E46"></path>
              	<path class="st0" d="M314.9,244.1c5.6,1.3,10.8,2.5,16,3.8c8.4,2.1,16.8,4.2,25.2,6.6c1,0.3,2.3,2.8,2,3.8
              		c-2.4,7.7-5.1,15.4-7.7,23.1c-1,2.9-3,3.3-5.5,2.2c-11.8-5.5-23.6-10.9-35.2-16.6c-0.9-0.5-1.7-3-1.3-4.2
              		C310.2,256.6,312.5,250.5,314.9,244.1z" fill="#313E46"></path>
              	<path class="st0" d="M363.7,231.1c-15.6-1.7-30.4-3.4-45.3-5c0-7.1,0-13.8,0-21.3c15-1.1,29.9-2.2,45.3-3.4
              		C363.7,211.5,363.7,221,363.7,231.1z" fill="#313E46"></path>
              	<path class="st0" d="M306.1,341.2c-2.3,2-3.6,3.1-5.6,4.8c-1.8-2.9-3.5-5.4-4.9-8.2c-0.2-0.4,2.1-2.5,2.3-2.4
              		C300.5,336.9,302.9,338.8,306.1,341.2z" fill="#313E46"></path>
              	<path class="st0" d="M163.5,158.9c2.5,6.7,4.9,13.1,7.3,19.7c18.3-5.1,36.6-10.1,55.1-15.2c-1.2-2.9-2.3-5.6-3.5-8.3
              		c-1.5-3.6-0.8-5.5,2.7-7.2c4.5-2.2,8.9-4.4,13.4-6.6c2.9-1.4,5.5-0.8,6.7,1.6c1.2,2.4,0.1,4.9-2.7,6.3c-3.5,1.8-7,3.5-10.7,5.3
              		c1.7,3.9,3.2,7.7,4.8,11.4c2.6,6.2,5.3,12.4,7.8,18.6c0.6,1.4,1.2,1.7,2.6,1.3c21.6-5.2,42.3,7.7,47.2,29.3
              		c5.5,24.4-14.4,48-39.4,46.7c-26.3-1.4-43-25.6-35-50.7c2.6-8.3,7.9-14.6,14.8-19.7c0.7-0.5,1.3-0.9,2-1.4c0.1,0,0.1-0.1,0.3-0.4
              		c-1.9-4.6-3.9-9.3-6.1-14.5c-2.6,3.5-5,6.6-7.4,9.8c-11.4,15.2-22.9,30.4-34.3,45.6c-1.6,2.1-3.4,3.1-6.1,2.8
              		c-4.6-0.5-9.1-0.8-13.9-1.2c-4.2,14.6-13.3,24.6-28.2,28.6c-10.3,2.8-20.2,1.2-29.4-4.2c-18.2-10.8-24.3-34.5-13.5-52.8
              		c11-18.6,36.6-25.9,56.3-11.6c2.8-2.6,5.6-5.1,8.3-7.7c0.3-0.3,0.3-1.2,0.1-1.8c-2.5-6.9-5.1-13.8-7.6-20.6
              		c-0.4-1.1-0.9-1.5-2.1-1.2c-2.2,0.6-4.3,1-6.5,1.3c-2.4,0.4-4.3-0.7-5-3c-0.6-1.8-1-3.6-1.5-5.3c-1-3.8,0.8-6.3,4.8-6.3
              		c7.9-0.1,15.7,0,23.6,0c1.9,0,3.9-0.1,5.8,0c2.6,0.1,4.3,1.7,4.6,4c0.2,2.3-1.1,4.2-3.7,4.8C171.4,157.3,167.6,158,163.5,158.9z
              		 M240.8,198.4c-13.1,7.4-17.7,25.5-10.3,39c7.9,14.4,25.8,19.8,40.1,12.2c14.4-7.7,19.9-25.3,12.5-39.8
              		c-7.4-14.4-23.8-18.7-34-14.9c0,0.2,0,0.4,0.1,0.6c3.8,8.9,7.6,17.9,11.3,26.8c1.2,2.8,0.3,5.4-2.1,6.3c-2.5,1-4.8-0.1-6-3
              		c-3.3-7.8-6.7-15.5-10-23.3C241.8,201.2,241.3,199.8,240.8,198.4z M159.9,231.5c-0.6-0.1-1-0.2-1.4-0.3c-8.9-0.8-17.9-1.6-26.8-2.3
              		c-2.2-0.2-4.1-0.7-5-3c-0.8-2.2,0.2-3.8,1.6-5.4c6.2-6.4,12.4-12.9,18.6-19.4c0.5-0.6,1-1.2,1.5-1.8c-7.3-6.2-21.8-8.1-32.7-1.2
              		c-11.4,7.2-16.7,21.2-12.7,34.1c4.1,13,16.4,21.6,30,20.8C145.8,252.4,157.7,242.9,159.9,231.5z M186.2,219.8
              		c11.5-15.3,22.8-30.2,34-45.2c-0.1-0.1-0.2-0.3-0.2-0.4c-15.3,4.2-30.6,8.4-46,12.7C178,197.9,182,208.6,186.2,219.8z M155,205.6
              		c-4.8,5-9.5,9.9-14.5,15.2c7.3,0.6,13.9,1.2,20.5,1.7C161.4,217.3,158.6,209.6,155,205.6z M161.6,199.2c1,1.4,2.2,2.9,3.2,4.5
              		c3.3,5.4,4.8,11.4,5.3,17.7c0.1,0.7,0.6,1.9,1.1,2c2.2,0.4,4.5,0.4,7.1,0.6c-3.8-10.3-7.5-20.2-11.4-30.6
              		C164.9,195.5,163.4,197.2,161.6,199.2z" fill="#313E46"></path>
              	<path class="st0" d="M237.6,378.3c0.3-0.1,0.7-0.2,1-0.3c16.6-4.3,45.2-14.5,67.5-36.8l-30.6-33.8c-50.8,41.2-111.7,37.8-153.7,8.5
              		c-44.7-31.2-65.1-84.4-49.1-139.7c12.3-42.5,47.7-73.1,77.8-80.9c0,8.1,0,16.2,0,25.6c31-16,61.6-31.8,93.1-48.1
              		c-29.9-19.2-59.1-37.9-89.6-57.4c0,9-0.3,16.1,0.1,23.1c0.3,5.4-1.8,7.7-6.9,9c-22.9,5.7-43.6,16.3-61.8,31.2
              		c-36.5,30-57.7,68.3-62.7,115.5c-3.6,34,1.8,66.3,17.8,96.4c24.4,46.1,62,75.9,113,88.5c25.3,6.2,50.4,5.9,75.5,1
              		c1.4-0.3,3.2-0.6,5.2-1.1C235.3,378.8,236.5,378.5,237.6,378.3z" fill="#313E46"></path>
              	<path class="st0" d="M339.3,303.1c0.1,0,0.3-0.1,0.4-0.1c0-0.4,0-0.8-0.1-1.2c0.1-0.5,0-0.9-0.1-1.2c-12.9-7.8-25.8-15.6-38.6-23.4
              		c-5,6.7-9.8,13.2-14.8,20.1c11.5,10.2,22.8,20.2,34,30.3c0.5-0.4,0.9-0.8,1.4-1.3c0,0,0-0.1,0-0.1
              		C325.5,322,337.1,309.5,339.3,303.1z" fill="#313E46"></path>
              	<g>
              		<path class="st0" d="M298.1,50.8c4.8,2.8,7.3,8.4,7.3,16.8v3.5c0,9.5-3.3,15.2-9.9,16.9c6.5,1.8,9.9,7.5,9.9,16.8v3.2
              			c0,8.6-2.4,14.4-7.2,17.3c-4.8,2.9-13.4,4.3-25.8,4.3c-6.5,0-12.6-0.4-18.1-1.2c-1.4-0.3-2-0.9-2-1.6v-8.1c0-0.8,0.5-1.1,1.6-1.1
              			h18.1c8,0,13.4-0.8,15.9-2.3c2.5-1.5,3.8-4.6,3.8-9.2v-0.6c0-4.5-0.9-7.6-2.7-9.3c-1.7-1.7-5.3-2.6-10.7-2.6h-19.9
              			c-1,0-1.4-0.4-1.4-1.3V84c0-1,0.4-1.4,1.4-1.4H278c5.5,0,9.1-0.9,10.8-2.6c1.8-1.7,2.7-4.8,2.7-9.4v-1.3c0-4.5-1.3-7.4-4-8.7
              			c-2.6-1.3-8-1.9-16.3-1.9h-17.5c-1.1,0-1.6-0.4-1.6-1.2v-7.9c0-0.9,0.6-1.4,2-1.7c4.8-0.8,10.8-1.2,18.1-1.2
              			C284.7,46.7,293.3,48.1,298.1,50.8z" fill="#313E46"></path>
              		<path class="st0" d="M369.1,52c7.3,6.2,9,16.8,9.2,36.3c0,13.3-1.1,21.7-3.6,28.4c-4.2,9.8-12,12.8-27,13
              			c-12.2,0-20.4-2.8-24.4-8.5c-4.1-5.7-6.1-16.7-6.1-32.9c0-16.7,1.4-26,6-32.8c4.7-6.8,12-8.9,24.5-8.9
              			C357.9,46.7,364.4,48.3,369.1,52z M334.2,111.7c2.3,4,6.8,6,13.5,6c6.8,0,11.3-2,13.5-6c2.3-4.1,3.4-11.9,3.4-23.4
              			c0-11.6-1.2-19.4-3.4-23.5c-2.3-4.2-6.8-6.2-13.5-6.2c-6.8,0-11.3,2-13.5,6.2c-2.3,4.1-3.3,11.9-3.3,23.5
              			C330.9,99.8,332,107.7,334.2,111.7z" fill="#313E46"></path>
              	</g>
              </g>
              </svg>