<svg xmlns:xlink="http://www.w3.org/1999/xlink" id="Layer_1" xmlns="http://www.w3.org/2000/svg" viewBox="0 0 400 400" width="400"  height="400" >
                <defs>
                  <style>
                    .cls-1 {
                      fill: #313e46;
                    }
                  </style>
                </defs><path class="cls-1" d="M270.05,357.64v-8.13c4.5,0,8.65-.05,12.8,.06,.47,.01,1.28,.87,1.31,1.38,.6,10.22-.29,20.1-7.6,28.16-5.53,6.09-12.47,9.57-20.73,9.71-12.65,.21-25.31,.12-37.97,.12-28.1,0-56.21,.03-84.31-.03-13.34-.03-22.69-6.45-27.96-18.54-1.37-3.14-2.1-6.82-2.1-10.26-.12-77.8-.05-155.6-.14-233.4-.01-9.68,2.74-17.98,10.03-24.5,5.42-4.85,11.84-7.46,19.14-7.47,40.57-.04,81.15,0,121.72,0,14.28,0,26.85,9.93,29.12,24,1.21,7.54,.86,15.33,1.2,22.71-5.13,.57-9.65,1.07-14.51,1.6v-17.44h-3.34c-48.67,0-97.34,.02-146.01-.06-2.64,0-3.22,.79-3.22,3.29,.07,53.32,.05,106.65,.05,159.97,0,21.67,0,43.35,0,65.02v3.8h152.52Z" fill="#313E46"></path><path class="cls-1" d="M331.15,309.85c-.06-1.17-.13-2.06-.14-2.95,0-12.94,.01-25.87-.03-38.81,0-1.73,2.14-13.19-.17-13.96-1.57-3.4-2.73-6.97-4.7-10-5.6-8.59-13.64-13.59-24-13.67-25.5-.19-51-.16-76.5,.05-3.57,.03-5.25-1.54-6.6-4.22-4.91-9.82-2.89-19.18,5.6-27.56,13.27-13.1,26.48-26.27,39.6-39.53,8.97-9.07,22.59-9.06,31.64,.03,23.19,23.3,46.49,46.49,69.71,69.76,3.69,3.7,7.6,7.27,10.73,11.41,5.93,7.86,4.6,20.35-2.85,27.59-13.84,13.47-27.3,27.33-40.93,41.02-.3,.3-.73,.46-1.37,.84Zm-25.9-117.22c-.97-2.02-1.45-4.16-2.74-5.51-5.26-5.51-10.74-10.82-16.21-16.13-2.52-2.45-6.03-3.23-8.82-1.12-3.69,2.79-7.09,6.1-10.08,9.64-2.6,3.08-2.16,6.93,.68,9.86,5.39,5.58,10.88,11.06,16.47,16.42,2.85,2.73,7.45,2.62,10.4-.05,2.65-2.4,5.32-4.83,7.64-7.54,1.23-1.45,1.72-3.52,2.67-5.57Z" fill="#313E46"></path><path class="cls-1" d="M322.12,266.57c-3.25-.26,.5,9.76,.5,10.75,0,13.77-.02,27.54,0,41.31,.02,10.02-5.4,18.63-15.23,21.69-1.91,.59-4.01,.74-6.03,.74-37.31,.04-74.62-.12-111.93,.13-10.89,.07-21.13-10.1-20.93-21.03,.36-20.09,.32-40.2,.02-60.29-.17-11.63,10.46-21.21,21.39-21.15,37.03,.19,74.06,.11,111.1,.05,11.67-.02,21.13,9.12,21.58,21.22,.08,2.1-.29,4.22-.46,6.58Zm-12.76,10.18l.6,.77c-2.93,0-5.86,0-8.79,0-40.75,0-81.49,.03-122.24-.06-2.75,0-3.48,.84-3.45,3.5,.12,12.28,.05,24.56,.06,36.84,0,10.44,5.93,16.35,16.4,16.35,35.63,0,71.26-.08,106.89,.05,9.06,.03,16.67-5.37,16.4-16.33-.26-10.6-.06-21.21-.06-31.82,0-.99,0-1.98,0-2.88,.99-.1,1.62-.16,2.54-.25l-2.19-3.03c1.88-1.15,3.6-2.47,2.34-4.71-.92-1.63-2.33-3.81-4.53-2.71-1.63,.81-2.66,2.81-3.96,4.28Zm5.11-18.04c.13-4.83-3.56-10.17-8.01-11.5-2.1-.63-4.36-1.06-6.54-1.06-36.38-.06-72.75-.03-109.13-.06-3.44,0-6.65,.66-9.35,2.83-3.06,2.46-5.27,5.46-5.22,9.79h138.25Zm.52,30.61l.23-11.77h-6.45l-2.58-6.98,4.55-2.51s4.4,2.35,4.78,2.51,4.02,2.66,4.33,3.57,1.52,10.1,1.21,11.23c-.3,1.14-6.07,3.95-6.07,3.95Zm7.52-29.83v29.45l-6.83-15.87,3.34-8.43,3.49-5.16Z" fill="#313E46"></path><path class="cls-1" d="M17.82,120.28c.62-15.95,4.42-31.1,11.37-45.44,10.2-21.08,25.37-37.66,45.36-49.86,13.19-8.05,27.5-13.08,42.67-15.54,5.66-.92,11.47-.98,17.23-1.18,4.37-.16,7.3,2.44,7.48,6.14,.22,4.73-2.13,7.38-6.97,7.87-6.92,.69-13.93,.91-20.73,2.21-6.21,1.2-12.35,3.18-18.25,5.52-15.16,6.01-27.99,15.45-38.76,27.7-10.84,12.33-18.45,26.48-22.27,42.37-2,8.33-2.43,17.05-3.37,25.61-.46,4.18-3.11,7.01-7.08,6.91-3.89-.1-6.57-2.89-6.67-7-.04-1.77,0-3.53,0-5.3Z" fill="#313E46"></path><path class="cls-1" d="M237.69,170.93c-3.47,3.47-6.64,6.64-10.11,10.11-10.82-12.93-24.8-18.25-41.31-15.78-10.36,1.55-18.98,6.97-25.7,15.05-12.55,15.09-15.59,41.91,5.7,60.88-2.05,4.2-4.09,8.35-6.24,12.75-17.48-13.67-25.7-31.7-22.82-53.55,3.02-22.91,16.16-39.28,38.12-46.65,23.97-8.05,44.84-1.38,62.37,17.2Z" fill="#313E46"></path><path class="cls-1" d="M46.55,123.47c1.71-28.51,13.22-51.83,36.38-69.11,9.33-6.96,19.61-11.91,30.83-14.51,6.82-1.58,13.94-1.97,20.95-2.55,3.32-.27,6.44,2.18,7.11,4.72,.89,3.38-.32,6.64-3.38,8.34-1.06,.59-2.46,.75-3.71,.78-18.32,.51-34.56,6.44-48.46,18.48-11.25,9.75-18.93,21.91-22.8,36.19-1.71,6.28-1.88,12.99-2.67,19.52-.34,2.78-1.12,5.07-3.92,6.44-2.67,1.31-5.09,1.01-7.32-.61-2.55-1.86-3.3-4.61-3.02-7.69Z" fill="#313E46"></path><path class="cls-1" d="M132.69,62.95c6.21-.08,9.27,2.51,9.25,7.3-.02,4.04-2.69,6.76-7.08,6.88-6.74,.18-13.26,1.36-19.4,4.17-10.57,4.83-18.59,12.4-23.77,22.84-3.42,6.9-5.18,14.21-5.1,21.97,.04,3.59-3.26,6.46-7.01,6.46-3.89,0-7.1-2.91-6.93-7.07,.19-4.8,.57-9.68,1.67-14.34,4.06-17.06,13.82-30.1,28.76-39.26,9.26-5.68,19.46-8.26,29.62-8.96Z" fill="#313E46"></path><rect class="cls-1" x="185.86" y="295.21" width="119.63" height="15.12" fill="#313E46"></rect><path class="cls-1" d="M205.71,181.31c.93,.25,1.37,.75,1.37,1.43v5.48c0,.56-.31,.81-.93,.81h-8.47c-3.99,0-6.6,.44-7.91,1.31-1.24,.81-1.87,2.49-1.87,4.92v9.53h13.52c.69,0,1,.31,1,.93v3.93c0,.62-.31,.93-1,.93h-13.52v9.78h19.37c.69,0,1,.31,1,.94v6.66c0,.62-.31,.94-1,.94h-34.82c-.62,0-.93-.31-.87-.94l1.18-6.66c.19-.62,.56-.94,1.18-.94h4.11v-9.78h-3.55c-.69,0-1-.31-1-.93v-3.93c0-.62,.31-.93,1-.93h3.55v-11.52c0-4.98,1.49-8.35,4.48-10.15,3.05-1.8,7.85-2.68,14.51-2.68,2.55,0,5.42,.31,8.66,.87Z" fill="#313E46"></path></svg>