<svg xmlns:xlink="http://www.w3.org/1999/xlink" id="Layer_1" xmlns="http://www.w3.org/2000/svg" viewBox="0 0 400 400" width="400"  height="400" >
                <defs>
                  <style>
                    .cls-1 {
                      fill: #313e46;
                    }
                  </style>
                </defs><path class="cls-1" d="M41.58,296.87c0-2.22,0-4.05,0-5.88,0-39.34-.02-78.68,.02-118.02,0-9.8,5.07-16.93,13.61-19.03,2.59-.64,5.35-.8,8.04-.8,51.37-.03,102.75-.04,154.12,.03,14.94,.02,21.75,7.05,21.74,22.02,0,39.46,.02,78.92-.04,118.39,0,2.41,.3,3.92,2.9,5.05,4.25,1.85,5.81,5.86,5.9,10.26,.15,7.43-.76,14.75-3.76,21.62-5.24,11.98-14.55,19.15-27.51,19.74-18.03,.81-36.12,.56-54.18,.59-32.57,.06-65.14,.04-97.71-.1-4.5-.02-9.14-.42-13.48-1.55-13.89-3.64-23.23-15.58-25.03-31.38-.33-2.93-.71-5.88-.65-8.81,.16-7.04,4.07-11.1,11.07-11.79,1.45-.14,2.91-.2,4.96-.33Zm17.75-125.72v125.73c1.33,.09,2.53,.25,3.72,.25,51.51,0,103.02-.02,154.53,.06,3.12,0,3.91-.99,3.91-4-.09-39.22-.05-78.45-.07-117.67,0-1.42-.14-2.84-.21-4.36H59.33Zm170.21,144H43.93c1.08,11.85,7.12,17.71,18.56,17.81,15.49,.14,30.97,.07,46.46,.07,34.42,0,68.83,.05,103.25-.09,11-.04,17.4-6.8,17.33-17.79Z" fill="#313E46"></path><path class="cls-1" d="M141.78,241.22c-1.58,1.34-2.93,2.53-4.33,3.66-1.58,1.27-3.34,1.92-5.33,1.04-2.1-.93-2.72-2.79-2.73-4.87-.04-8.03-.02-16.07-.01-24.1,0-1.93,.61-3.6,2.47-4.45,1.74-.8,3.27-.15,4.68,.95,6.42,5.02,12.85,10.02,19.27,15.03,1.6,1.25,2.75,2.77,2.22,4.94-.52,2.13-2.18,3.03-4.17,3.47-1.91,.41-3.82,.84-5.98,1.31,.88,1.61,1.64,3.02,2.41,4.42,1.29,2.34,2.61,4.67,3.88,7.02,1.12,2.08,.66,4.03-1.11,4.98-1.72,.92-3.55,.3-4.67-1.69-1.86-3.29-3.67-6.61-5.51-9.91-.3-.55-.64-1.08-1.08-1.79Zm-5.58-4.06c3.54-3.33,7.42-5.11,12.18-5.99-4.2-3.26-8.07-6.28-12.18-9.47v15.46Z" fill="#313E46"></path><path class="cls-1" d="M307.48,164.53c0,5.77,.08,11.55-.02,17.32-.11,6.12-3.17,9.42-9.31,9.51-11.66,.17-23.33,.17-35,0-5.92-.09-9.25-3.63-9.31-9.63-.12-11.42-.11-22.85,0-34.27,.06-6.17,3.4-9.61,9.62-9.71,11.42-.19,22.84-.2,34.26-.06,6.51,.09,9.62,3.45,9.76,9.9,.06,2.82,.03,5.65,.03,8.48,0,2.83,0,5.65,0,8.48h-.03Zm-17.85-8.72h-17.74v17.54h17.74v-17.54Z" fill="#313E46"></path><path class="cls-1" d="M263.34,224.89h60.65s5.6,1.8,5.4-5.4V120.2l17.62-5.2v100.09s6.21,27.02-17.62,27.02h-64.06s-13.61,2-13.61-8.61,11.61-8.61,11.61-8.61Z" fill="#313E46"></path><path class="cls-1" d="M149.44,118.2v17.22s-1,5.81,8.21,5.81,7.71-5.6,7.71-7.71v-13.51l-15.91-1.8Z" fill="#313E46"></path><path class="cls-1" d="M107.24,148.32c0-9.06-.41-16.87,.23-24.6,.22-2.66,2.45-6.35,4.77-7.45,42.47-20.26,85.07-40.25,127.74-60.07,2.22-1.03,5.77-1,8.01,.03,42.67,19.83,85.25,39.84,127.73,60.07,2.19,1.04,4.43,4.39,4.6,6.82,.58,7.98,.22,16.03,.22,25.13-3.36-1.49-6.15-2.67-8.89-3.95-40.41-18.96-80.85-37.85-121.15-57.04-4.9-2.33-8.61-2.14-13.4,.15-40.3,19.17-80.73,38.06-121.13,57.02-2.58,1.21-5.21,2.33-8.73,3.9Z" fill="#313E46"></path></svg>