<svg xmlns:xlink="http://www.w3.org/1999/xlink" id="Layer_1" xmlns="http://www.w3.org/2000/svg" viewBox="0 0 400 400" width="400"  height="400" >
                <defs>
                  <style>
                    .cls-1 {
                      fill: #313e46;
                    }
                  </style>
                </defs>
                <g><path class="cls-1" d="M171.15,111.15l40.92-18.82c.9-.41,.86-1.71-.06-2.06l-36.02-13.98c-.67-.26-1.41,.17-1.52,.88l-4.9,32.8c-.13,.88,.77,1.56,1.58,1.18Z" fill="#313E46"></path><path class="cls-1" d="M184.49,70.07l43.07,13.16c.82,.25,1.61-.47,1.42-1.31l-5.99-27.52c-.15-.67-.86-1.06-1.5-.81l-37.07,14.36c-.99,.38-.94,1.81,.08,2.12Z" fill="#313E46"></path><path class="cls-1" d="M232.58,98.44c-.16-.73-.97-1.1-1.63-.75l-43.65,23.6c-.78,.42-.79,1.53-.01,1.97l55.56,31.1c.84,.47,1.85-.27,1.64-1.22l-11.91-54.7Z" fill="#313E46"></path><path class="cls-1" d="M230.29,172.76l-62.46-40.39c-.68-.44-1.6-.03-1.72,.78l-8.42,56.39c-.12,.78,.59,1.43,1.36,1.26l70.88-16c.97-.22,1.2-1.5,.36-2.04Z" fill="#313E46"></path></g><path class="cls-1" d="M199.46,346.4c-10.37-15.78-20.76-30.51-30.02-45.93-15.47-25.75-30.6-51.72-45.16-77.99-13.67-24.65-25.02-50.44-31.59-77.97-13.81-57.87,23.76-117.01,82.36-130.2C245.79-1.6,311.7,52.51,309.67,124.98c-.47,16.93-5.91,32.81-11.9,48.42-15.03,39.18-35.64,75.51-57.64,111.07-11.99,19.38-24.8,38.25-37.25,57.35-.85,1.31-1.86,2.51-3.42,4.59Zm.46-132.9c48.82,.03,88.91-39.65,89.05-88.13,.14-50.11-39.53-90.41-89.02-90.44-49.33-.03-89.42,40.05-89.41,89.36,.01,49.55,39.72,89.18,89.38,89.21Z" fill="#313E46"></path><path class="cls-1" d="M199.79,390.07c-36.71-.28-73.19-2.96-108.58-13.42-11.6-3.43-22.86-8.44-33.69-13.89-5.63-2.83-10.68-7.63-14.77-12.55-7.66-9.22-7.12-20.64,.37-30.01,5.57-6.97,12.9-11.66,20.76-15.55,18.55-9.17,38.46-13.81,58.68-17.32,4.38-.76,7.75,1.72,8.39,5.64,.66,4.06-1.54,7.12-5.89,8.24-14.6,3.75-29.41,6.86-43.71,11.52-7.99,2.6-15.64,7.07-22.55,11.95-9.95,7.03-9.62,14.64,.07,22.15,10.53,8.15,22.87,12.54,35.47,16.13,39.53,11.25,80.02,13.72,120.84,12.65,28.09-.73,56.02-3.33,83.15-10.93,12.08-3.38,23.74-8.41,35.31-13.36,4.11-1.76,7.76-5.13,10.94-8.42,4.77-4.93,4.9-9.75-.05-14.59-4.08-4-8.88-7.56-13.93-10.22-16.49-8.66-34.46-12.84-52.64-16.23-1.28-.24-2.59-.41-3.84-.75-4.24-1.15-6.35-4.46-5.49-8.5,.78-3.67,4.14-6.01,8.26-5.3,20.08,3.48,39.84,8.12,58.3,17.11,7.88,3.84,15.23,8.5,20.87,15.4,8.1,9.9,8.2,21.5,.11,31.5-6.38,7.89-14.97,12.77-24.03,16.87-20.57,9.3-42.38,14.39-64.61,17.07-22.46,2.71-45.09,4.02-67.64,5.94l-.11-1.13Z" fill="#313E46"></path></svg>